<?xml version="1.0" encoding="utf-8"?>
<svg version="1.1" xmlns:xlink="http://www.w3.org/1999/xlink" width="20px" height="20px" xmlns="http://www.w3.org/2000/svg">
  <g transform="matrix(1 0 0 1 -1091 -78 )">
    <path d="M 0.4013377926421405 15.714285714285714  L 19.59866220735786 15.714285714285714  L 19.988851727982162 19.207589285714285  C 20.011148272017838 19.41592261904762  19.951690821256037 19.601934523809526  19.81047937569677 19.765625  C 19.669267930137497 19.921875  19.4908955778521 20  19.27536231884058 20  L 0.7246376811594203 20  C 0.5091044221479004 20  0.33073206986250464 19.921875  0.189520624303233 19.765625  C 0.04830917874396135 19.601934523809526  -0.011148272017837236 19.41592261904762  0.011148272017837236 19.207589285714285  L 0.4013377926421405 15.714285714285714  Z M 18.327759197324415 5.8984375  C 18.461538461538463 6.021205357142858  18.539576365663322 6.171875  18.561872909698998 6.350446428571428  L 19.520624303233 15  L 0.4793756967670011 15  L 1.4381270903010033 6.350446428571428  C 1.4604236343366779 6.171875  1.5384615384615385 6.021205357142858  1.6722408026755853 5.8984375  C 1.806020066889632 5.775669642857142  1.965811965811966 5.7142857142857135  2.151616499442586 5.7142857142857135  L 5.005574136008919 5.7142857142857135  L 5.005574136008919 7.142857142857142  C 5.005574136008919 7.53720238095238  5.144927536231884 7.873883928571428  5.423634336677815 8.152901785714286  C 5.702341137123746 8.431919642857142  6.03864734299517 8.571428571428573  6.432552954292085 8.571428571428573  C 6.826458565589001 8.571428571428573  7.162764771460424 8.431919642857142  7.441471571906354 8.152901785714286  C 7.720178372352286 7.873883928571428  7.859531772575251 7.53720238095238  7.859531772575251 7.142857142857142  L 7.859531772575251 5.7142857142857135  L 12.14046822742475 5.7142857142857135  L 12.14046822742475 7.142857142857142  C 12.14046822742475 7.53720238095238  12.279821627647715 7.873883928571428  12.558528428093645 8.152901785714286  C 12.837235228539576 8.431919642857142  13.173541434411 8.571428571428573  13.567447045707915 8.571428571428573  C 13.961352657004833 8.571428571428573  14.297658862876254 8.431919642857142  14.576365663322186 8.152901785714286  C 14.855072463768115 7.873883928571428  14.994425863991081 7.53720238095238  14.994425863991081 7.142857142857142  L 14.994425863991081 5.7142857142857135  L 17.848383500557414 5.7142857142857135  C 18.034188034188034 5.7142857142857135  18.193979933110366 5.775669642857142  18.327759197324415 5.8984375  Z M 13.026755852842808 1.255580357142858  C 13.862876254180602 2.092633928571428  14.280936454849497 3.102678571428572  14.280936454849497 4.2857142857142865  L 14.280936454849497 7.142857142857142  C 14.280936454849497 7.336309523809524  14.210330732069863 7.503720238095237  14.069119286510592 7.6450892857142865  C 13.92790784095132 7.786458333333332  13.760683760683763 7.857142857142858  13.567447045707915 7.857142857142858  C 13.37421033073207 7.857142857142858  13.206986250464512 7.786458333333332  13.065774804905239 7.6450892857142865  C 12.92456335934597 7.503720238095237  12.853957636566333 7.336309523809524  12.853957636566333 7.142857142857142  L 12.853957636566333 4.2857142857142865  C 12.853957636566333 3.4970238095238093  12.575250836120402 2.823660714285714  12.017837235228539 2.265625  C 11.460423634336678 1.707589285714286  10.787811222593833 1.428571428571428  10 1.428571428571428  C 9.212188777406169 1.428571428571428  8.539576365663322 1.707589285714286  7.98216276477146 2.265625  C 7.424749163879598 2.823660714285714  7.146042363433668 3.4970238095238093  7.146042363433668 4.2857142857142865  L 7.146042363433668 7.142857142857142  C 7.146042363433668 7.336309523809524  7.075436640654033 7.503720238095237  6.9342251950947595 7.6450892857142865  C 6.793013749535489 7.786458333333332  6.625789669267931 7.857142857142858  6.432552954292085 7.857142857142858  C 6.23931623931624 7.857142857142858  6.072092159048682 7.786458333333332  5.930880713489409 7.6450892857142865  C 5.789669267930138 7.503720238095237  5.719063545150501 7.336309523809524  5.719063545150501 7.142857142857142  L 5.719063545150501 4.2857142857142865  C 5.719063545150501 3.102678571428572  6.137123745819398 2.092633928571428  6.973244147157191 1.255580357142858  C 7.809364548494983 0.41852678571428603  8.818283166109254 0  10 0  C 11.181716833890746 0  12.190635451505017 0.41852678571428603  13.026755852842808 1.255580357142858  Z " fill-rule="nonzero" fill="#000000" stroke="none" transform="matrix(1 0 0 1 1091 78 )" />
  </g>
</svg>